<?xml version="1.0" standalone="no"?>
<!DOCTYPE svg PUBLIC "-//W3C//DTD SVG 20010904//EN"
 "http://www.w3.org/TR/2001/REC-SVG-20010904/DTD/svg10.dtd">
<svg version="1.0" xmlns="http://www.w3.org/2000/svg"
 width="110.000000pt" height="110.000000pt" viewBox="0 0 110.000000 110.000000"
 preserveAspectRatio="xMidYMid meet">
<metadata>
Created by potrace 1.14, written by Peter Selinger 2001-2017
</metadata>
<g transform="translate(0.000000,110.000000) scale(0.100000,-0.100000)"
fill="#000000" stroke="none">
<path d="M32 1067 c-18 -18 -32 -39 -32 -46 0 -7 18 5 41 28 22 23 46 41 52
38 21 -6 19 -42 -4 -71 -18 -22 -28 -27 -55 -24 -18 2 -30 0 -28 -4 3 -4 19
-8 36 -8 20 0 29 -4 25 -12 -2 -7 -1 -22 3 -33 5 -13 1 -29 -10 -45 -32 -46
-60 -109 -59 -132 1 -17 3 -18 6 -5 5 18 25 21 56 8 17 -6 17 -8 3 -20 -21
-18 -20 -53 2 -82 14 -17 17 -36 14 -66 -4 -42 -5 -43 -43 -43 -21 0 -39 -4
-39 -10 0 -5 25 -10 55 -10 31 0 69 -7 85 -15 25 -13 30 -22 30 -53 0 -20 4
-51 9 -69 9 -31 9 -32 -32 -42 -23 -5 -62 -15 -86 -22 -35 -10 -45 -10 -53 2
-27 38 5 -57 35 -104 24 -36 32 -58 27 -72 -4 -11 -5 -26 -3 -32 4 -9 -5 -13
-25 -13 -17 0 -34 -4 -37 -10 -4 -6 5 -7 24 -4 39 8 86 -34 78 -72 -2 -13 0
-24 4 -24 5 0 9 14 9 31 0 21 4 30 13 26 6 -2 21 -1 32 3 14 5 35 -3 72 -27
58 -37 112 -44 134 -16 30 35 111 63 187 63 78 0 125 -15 178 -55 43 -33 70
-31 127 5 32 20 60 30 87 30 38 0 40 -2 40 -30 0 -17 4 -30 8 -30 5 0 7 12 4
28 -5 37 36 77 72 70 15 -3 26 -1 26 3 0 5 -13 9 -29 9 -25 0 -29 4 -34 33 -3
24 3 45 29 87 32 52 46 109 24 95 -7 -5 -136 29 -158 41 -1 1 3 33 9 72 13 81
27 92 109 92 28 0 50 5 50 10 0 6 -17 10 -37 10 l-38 0 0 44 c1 23 8 55 18 69
20 31 22 58 5 75 -9 9 -6 14 13 21 13 5 27 7 32 4 23 -13 -15 87 -48 127 -7 9
-10 30 -8 53 5 33 8 37 34 37 16 0 29 4 29 8 0 5 -13 7 -29 4 -42 -6 -74 29
-69 73 2 19 0 31 -4 29 -4 -3 -8 -18 -8 -33 0 -26 -4 -29 -37 -34 -23 -2 -44
1 -53 9 -41 35 -162 81 -146 55 14 -22 -93 -79 -164 -88 -26 -3 -71 0 -98 7
-58 13 -146 65 -137 80 14 23 -46 7 -104 -28 -48 -29 -71 -37 -97 -34 -25 3
-34 9 -34 22 0 59 -40 66 -88 17z m325 -9 l24 -22 -39 -36 c-21 -19 -47 -48
-58 -63 l-20 -29 -57 24 c-31 13 -57 26 -57 29 0 17 148 119 174 119 5 0 20
-10 33 -22z m516 -28 c107 -71 107 -71 35 -100 -59 -23 -60 -23 -71 -4 -5 10
-31 40 -57 66 l-46 47 25 20 c14 11 29 20 33 20 3 1 40 -21 81 -49z m-406 -34
c2 -2 -11 -31 -29 -64 -36 -67 -29 -64 -122 -38 l-39 11 57 62 58 63 36 -16
c20 -8 38 -16 39 -18z m335 -54 c16 -19 26 -37 24 -39 -6 -6 -118 -35 -120
-31 0 2 -15 30 -33 63 l-31 60 36 16 c36 15 38 15 67 -9 17 -13 42 -40 57 -60z
m-632 73 c0 -7 -78 -85 -85 -85 -14 0 -2 53 15 70 17 17 70 29 70 15z m837
-17 c21 -20 32 -68 16 -68 -10 0 -83 72 -83 82 0 16 45 7 67 -14z m-462 -73
l0 -60 -53 1 c-29 1 -55 4 -58 7 -6 5 30 82 49 105 6 7 22 12 36 10 25 -3 26
-6 26 -63z m111 10 c34 -64 28 -75 -43 -75 l-43 0 0 65 c0 65 0 65 29 65 25 0
33 -8 57 -55z m-409 -40 c3 -2 -52 -134 -59 -141 -7 -6 -139 25 -151 36 -11
10 16 64 59 117 l34 42 58 -26 c31 -14 58 -27 59 -28z m787 -24 c25 -38 46
-73 46 -78 0 -9 -122 -53 -145 -53 -6 0 -24 34 -42 76 l-31 75 51 24 c29 13
57 24 64 24 6 1 32 -30 57 -68z m-681 -4 c35 -8 47 -15 45 -26 -2 -9 -10 -16
-18 -17 -25 -1 -53 -15 -97 -51 -49 -39 -78 -44 -68 -10 4 12 18 46 31 76 19
42 27 52 41 46 10 -3 40 -11 66 -18z m516 -33 c29 -60 37 -104 21 -104 -7 0
-33 17 -59 38 -58 47 -89 64 -101 57 -9 -6 -12 2 -9 23 1 8 72 29 105 31 17 1
27 -10 43 -45z m-374 6 c3 -5 -1 -10 -9 -10 -8 0 -32 -20 -52 -45 -21 -24 -39
-43 -41 -42 -2 3 12 63 22 95 5 14 71 16 80 2z m218 -52 l16 -63 -47 53 c-26
29 -54 53 -62 53 -25 1 22 18 51 18 24 1 28 -4 42 -61z m-163 -33 l0 -55 -35
0 c-40 0 -42 4 -15 45 11 17 20 38 20 48 0 9 7 17 15 17 12 0 15 -13 15 -55z
m40 38 c0 -10 9 -31 20 -48 26 -40 25 -45 -10 -45 -30 0 -30 1 -30 55 0 30 5
55 10 55 6 0 10 -8 10 -17z m-216 -50 c-5 -26 -9 -29 -37 -25 l-31 5 34 28
c18 16 35 27 37 25 2 -1 0 -16 -3 -33z m421 -13 l20 -22 -35 4 c-30 3 -35 7
-38 31 -3 25 -1 27 15 19 10 -6 27 -20 38 -32z m-637 7 l33 -12 -31 -18 c-29
-18 -30 -18 -30 0 0 11 -5 24 -12 31 -15 15 -3 14 40 -1z m822 -27 c0 -17 -3
-18 -25 -8 -19 8 -22 14 -13 20 22 14 38 9 38 -12z m-631 -16 c2 -2 -7 -12
-20 -23 -26 -22 -56 -26 -79 -11 -25 17 27 51 65 44 17 -4 32 -8 34 -10z m507
-9 c16 -13 17 -16 4 -25 -23 -15 -49 -12 -76 9 l-25 20 23 4 c43 8 54 7 74 -8z
m-325 -5 c17 0 19 -8 19 -65 l0 -65 -90 0 -90 0 0 27 c0 17 14 41 43 70 35 37
47 43 71 38 16 -3 37 -5 47 -5z m169 -40 c25 -25 40 -49 40 -65 0 -25 -1 -25
-85 -25 l-85 0 0 65 0 65 45 0 c39 0 50 -5 85 -40z m-150 -169 l0 -58 -82 -5
c-46 -3 -84 -5 -85 -4 -1 1 -5 29 -9 64 l-7 62 92 0 91 0 0 -59z m188 -3 c-2
-43 -7 -63 -15 -62 -7 1 -44 2 -83 3 l-70 1 0 60 0 60 85 0 86 0 -3 -62z
m-498 22 c0 -6 -7 -13 -15 -16 -19 -8 -20 -24 -1 -24 7 0 21 10 30 23 15 19
16 19 10 2 -4 -11 -8 -35 -9 -53 -3 -56 -49 -72 -59 -21 -11 56 -7 87 12 92
29 8 32 7 32 -3z m664 -2 c23 -10 25 -15 20 -52 -8 -61 -10 -64 -38 -59 -25 5
-43 34 -31 53 3 5 1 19 -5 30 -6 11 -7 20 -1 20 5 0 11 -7 15 -15 3 -8 12 -15
21 -15 19 0 20 16 0 24 -8 3 -15 10 -15 16 0 13 3 13 34 -2z m-544 -53 c0 -19
-4 -35 -8 -35 -4 0 -6 16 -4 35 2 19 6 35 8 35 2 0 4 -16 4 -35z m190 -114 l0
-68 -66 -7 c-37 -4 -68 -5 -71 -3 -2 3 -10 33 -17 68 -16 76 -15 77 87 78 l67
1 0 -69z m176 27 c-4 -24 -11 -58 -17 -77 -11 -33 -12 -33 -57 -27 -24 3 -53
6 -63 6 -17 0 -19 8 -19 70 l0 70 81 0 82 0 -7 -42z m-347 -41 c8 -37 12 -69
10 -72 -3 -2 -24 -7 -47 -11 -40 -6 -42 -6 -42 20 0 19 7 29 24 36 21 8 23 13
18 56 -8 74 20 52 37 -29z m387 22 c-6 -36 -4 -40 19 -49 18 -7 25 -17 25 -36
0 -26 -2 -26 -42 -20 -23 4 -44 8 -45 10 -2 1 4 35 13 74 17 75 41 91 30 21z
m129 26 c12 -3 11 -13 -7 -65 -12 -33 -25 -60 -29 -60 -11 0 -15 37 -11 92 3
34 8 46 18 42 8 -2 21 -6 29 -9z m-636 -55 c0 -33 -4 -60 -9 -60 -4 0 -16 23
-25 51 -15 43 -15 53 -4 60 30 19 37 9 38 -51z m-39 -43 c13 -32 21 -59 19
-62 -5 -4 -108 -45 -114 -45 -10 0 -95 122 -95 136 0 8 31 23 78 38 70 22 78
23 84 8 3 -9 16 -43 28 -75z m833 52 c18 -8 26 -17 23 -26 -8 -20 -76 -122
-86 -128 -6 -4 -93 26 -117 40 -2 1 7 26 46 127 l10 26 48 -14 c26 -8 61 -19
76 -25z m-505 -141 l-3 -63 -34 0 c-31 0 -36 5 -62 55 -32 64 -29 68 54 69
l48 1 -3 -62z m120 56 c26 -8 23 -27 -15 -86 -18 -30 -29 -38 -53 -38 l-30 0
0 65 0 65 38 0 c20 0 47 -3 60 -6z m-235 -68 l34 -64 -40 -18 -39 -18 -55 58
c-63 65 -62 71 14 92 26 7 49 13 50 13 1 1 17 -28 36 -63z m386 29 c11 -11 9
-18 -10 -45 -13 -17 -39 -43 -57 -56 -32 -25 -34 -25 -68 -9 -19 9 -34 20 -32
23 2 4 16 32 32 63 l29 56 46 -10 c25 -5 52 -15 60 -22z m-530 -50 c18 -25 46
-55 61 -67 l29 -21 -24 -19 c-22 -17 -29 -18 -60 -7 -38 14 -145 94 -145 108
0 7 81 47 101 50 3 1 20 -19 38 -44z m646 16 l39 -17 -54 -43 c-30 -24 -74
-53 -97 -64 -41 -20 -43 -20 -62 -2 -20 18 -20 18 34 77 30 33 55 64 55 69 0
11 24 6 85 -20z m-765 -78 c0 -2 -11 -3 -25 -3 -33 0 -65 33 -65 67 0 27 0 27
45 -17 25 -24 45 -45 45 -47z m860 62 c0 -32 -33 -65 -65 -65 -33 0 -32 6 13
51 44 45 52 47 52 14z"/>
<path d="M1055 1060 c43 -44 45 -45 45 -29 0 14 -58 69 -73 69 -6 0 7 -18 28
-40z"/>
<path d="M50 1034 c0 -9 5 -14 12 -12 18 6 21 28 4 28 -9 0 -16 -7 -16 -16z"/>
<path d="M1030 1035 c0 -8 7 -15 15 -15 8 0 15 7 15 15 0 8 -7 15 -15 15 -8 0
-15 -7 -15 -15z"/>
<path d="M0 67 c0 -14 57 -73 64 -66 2 2 -11 21 -30 41 -19 21 -34 32 -34 25z"/>
<path d="M50 55 c0 -9 5 -15 11 -13 6 2 11 8 11 13 0 5 -5 11 -11 13 -6 2 -11
-4 -11 -13z"/>
<path d="M1030 56 c0 -9 7 -16 16 -16 9 0 14 5 12 12 -6 18 -28 21 -28 4z"/>
<path d="M1060 35 c-22 -23 -29 -35 -19 -35 19 0 62 45 57 60 -2 6 -19 -5 -38
-25z"/>
</g>
</svg>
